Coordinates
version=1
nRows=11
nColumns=40
inDegrees=yes

Units are S.I. units (second, meters, Newtons, ...)
Angles are in degrees.

endheader
time	pelvis_tilt	pelvis_list	pelvis_rotation	pelvis_tx	pelvis_ty	pelvis_tz	hip_flexion_r	hip_adduction_r	hip_rotation_r	knee_angle_r	knee_angle_r_beta	ankle_angle_r	subtalar_angle_r	mtp_angle_r	hip_flexion_l	hip_adduction_l	hip_rotation_l	knee_angle_l	knee_angle_l_beta	ankle_angle_l	subtalar_angle_l	mtp_angle_l	lumbar_extension	lumbar_bending	lumbar_rotation	arm_flex_r	arm_add_r	arm_rot_r	elbow_flex_r	pro_sup_r	wrist_flex_r	wrist_dev_r	arm_flex_l	arm_add_l	arm_rot_l	elbow_flex_l	pro_sup_l	wrist_flex_l	wrist_dev_l
     16.35142857	     -4.02847198	     -3.69748501	     -2.57830277	      0.98710097	      0.93509569	      0.43007537	     36.31573833	     -7.00139160	     -5.90424578	     58.41938089	     58.41938089	      3.57667223	    -13.25971604	      0.86491890	     12.37568981	     -4.95910754	    -10.23126061	     18.61570175	     18.61570175	     12.45820585	     -5.79171576	     -4.16441311	    -11.23259021	      3.33440530	      2.54372025	      2.78447717	    -14.15104835	     -3.23148840	     58.55284124	     45.96106486	      0.00000000	      0.00000000	     21.28430235	    -18.12371097	      7.80012153	     45.48654346	     45.90761632	      0.00000000	      0.00000000
     16.36285714	     -3.93654063	     -3.59929373	     -2.87028017	      0.98678787	      0.93516428	      0.43071697	     36.53637496	     -6.89149351	     -5.93021196	     55.50203937	     55.50203937	      3.13291786	    -12.58521522	      0.96023031	     11.39410123	     -4.83714669	    -10.55001173	     18.07668501	     18.07668501	     12.73020459	     -5.69798613	     -4.36856212	    -11.39686113	      3.27782486	      2.98658257	      1.09329042	    -14.52926362	     -3.31034867	     55.09032259	     46.06391686	      0.00000000	      0.00000000	     22.93035301	    -18.38483196	      7.61552550	     47.21783293	     45.97408252	      0.00000000	      0.00000000
     16.37428571	     -3.85828400	     -3.57695881	     -3.12429814	      0.98663247	      0.93521029	      0.43141176	     36.53704613	     -6.68652794	     -6.12544452	     52.23699217	     52.23699217	      2.72219865	    -11.81850426	      1.15123837	     10.38279088	     -4.77592832	    -10.76404141	     17.46902864	     17.46902864	     13.01481495	     -5.54029253	     -4.58720393	    -11.48904208	      3.36899171	      3.31408963	     -0.50556768	    -14.85152601	     -3.43537709	     51.86516227	     46.16745193	      0.00000000	      0.00000000	     24.43748499	    -18.60573454	      7.44784123	     48.78326008	     46.03016357	      0.00000000	      0.00000000
     16.38571429	     -3.78444537	     -3.44915307	     -3.40914312	      0.98657064	      0.93517526	      0.43219612	     36.39944961	     -6.55817026	     -6.40114775	     48.72712855	     48.72712855	      2.21438717	    -10.98971474	      1.20403958	      9.29140651	     -4.58891581	    -11.11479073	     16.70735658	     16.70735658	     13.22984049	     -5.32312452	     -4.94794451	    -11.54721132	      3.31707272	      3.75233815	     -1.82805049	    -15.03626265	     -3.69550107	     47.69030385	     46.31212519	      0.00000000	      0.00000000	     25.84222890	    -18.79411070	      7.32701056	     50.74621244	     46.08706536	      0.00000000	      0.00000000
     16.39714286	     -3.90036634	     -3.22499646	     -3.65934041	      0.98654938	      0.93469026	      0.43314543	     36.30072063	     -6.46657580	     -6.75406636	     44.95084732	     44.95084732	      1.25108338	    -10.37475270	     -0.08508594	      8.39310738	     -4.29832234	    -11.38333597	     15.85576369	     15.85576369	     12.98665346	     -5.33355319	     -6.25238937	    -11.28382404	      3.07985103	      2.80876000	     -0.66777004	    -14.21963806	     -5.05452182	     39.11222841	     46.65565188	      0.00000000	      0.00000000	     25.89474010	    -20.31949494	      7.17930000	     54.02325524	     46.18103008	      0.00000000	      0.00000000
     16.40857143	     -4.06681076	     -2.91855557	     -3.88423443	      0.98650767	      0.93383391	      0.43412507	     36.21942299	     -6.38973253	     -7.09476446	     41.22279905	     41.22279905	      0.89460243	     -9.52261437	      0.51117301	      7.79366425	     -3.96522503	    -11.61344923	     15.51224327	     15.51224327	     13.35712677	     -5.26918657	     -6.44125133	    -11.02907303	      2.86599440	      2.56015680	     -2.47585099	    -14.47604818	     -5.08357893	     38.06846271	     46.68194788	      0.00000000	      0.00000000	     27.09740204	    -20.99095053	      6.77099400	     54.86494123	     46.23868893	      0.00000000	      0.00000000
     16.42000000	     -3.84044723	     -2.88149634	     -4.16872244	      0.98724882	      0.93382619	      0.43526455	     35.20602867	     -6.11433848	     -8.04151715	     36.92988933	     36.92988933	      0.25750183	     -7.91394210	     -0.37944263	      6.08686569	     -3.77988641	    -12.00058691	     13.94762765	     13.94762765	     12.95488684	     -4.92738369	     -7.91503816	    -11.29285542	      2.88949384	      2.83382835	     -2.72211407	    -14.40791537	     -6.08380408	     32.00086608	     46.91586731	      0.00000000	      0.00000000	     27.13991027	    -21.29520634	      5.69001147	     59.60356645	     46.44756678	      0.00000000	      0.00000000
     16.43142857	     -3.83141794	     -2.74479515	     -4.35798014	      0.98792400	      0.93312250	      0.43648717	     34.43070440	     -5.82656614	     -8.88958486	     32.85698119	     32.85698119	      0.09000045	     -6.36954838	      0.31858339	      5.00605715	     -3.57326937	    -12.25918728	     13.14568148	     13.14568148	     13.26084627	     -4.57391584	     -8.11454442	    -11.20083390	      2.87837260	      3.15656954	     -4.69816479	    -14.76987045	     -6.13836827	     30.66199122	     46.95031940	      0.00000000	      0.00000000	     28.21029377	    -21.31223550	      5.28608494	     61.11331465	     46.51697511	      0.00000000	      0.00000000
     16.44285714	     -3.71988910	     -2.41941185	     -4.60419239	      0.98892277	      0.93218147	      0.43785547	     33.59822995	     -5.71647315	     -9.78295992	     29.17417017	     29.17417017	      0.38143698	     -4.24714395	      1.67268549	      3.62340418	     -3.11050464	    -12.61460722	     11.95316496	     11.95316496	     13.02788401	     -4.30583408	     -9.50011283	    -11.23978280	      2.57883219	      3.00129021	     -5.64373740	    -14.76248330	     -6.84818966	     27.66643859	     47.05915888	      0.00000000	      0.00000000	     28.16468644	    -21.94997659	      4.17145416	     65.10176359	     46.72046174	      0.00000000	      0.00000000
     16.45428571	     -3.61624544	     -2.14559496	     -4.79743018	      0.99015593	      0.93101483	      0.43935712	     32.70767656	     -5.52154816	    -10.74500632	     25.76475005	     25.76475005	      0.77946827	     -2.14184316	      3.34398820	      2.34204488	     -2.72793391	    -12.93034322	     10.99537090	     10.99537090	     13.19795775	     -3.88187677	    -10.09274167	    -11.19803162	      2.35540812	      3.19808143	     -7.38987804	    -14.90822406	     -7.11001214	     26.33032303	     47.08559141	      0.00000000	      0.00000000	     28.72434962	    -22.12827800	      3.51170232	     67.69494536	     46.85212480	      0.00000000	      0.00000000
     16.46571429	     -3.47928836	     -1.88688438	     -4.97028797	      0.99161766	      0.92961898	      0.44108050	     31.77596952	     -5.26718841	    -11.64599574	     22.75634400	     22.75634400	      1.11221823	     -0.29429716	      4.60293734	      1.08252118	     -2.38798567	    -13.22878327	     10.19035718	     10.19035718	     13.53845073	     -3.40942080	    -10.45359823	    -11.16008510	      2.12153000	      3.56175354	     -9.34661669	    -15.02676769	     -7.17277772	     25.38329332	     47.10070683	      0.00000000	      0.00000000	     29.44834912	    -22.14705523	      3.08563064	     69.97576152	     46.93917180	      0.00000000	      0.00000000
